<?xml version="1.0" encoding="UTF-8"?>
<!DOCTYPE svg PUBLIC "-//W3C//DTD SVG 1.1//EN"
  "http://www.w3.org/Graphics/SVG/1.1/DTD/svg11.dtd">
<svg xmlns="http://www.w3.org/2000/svg" xmlns:xlink="http://www.w3.org/1999/xlink"   viewBox="0.00 0.00 2500.00 2500.00">
<!-- Created by OpenEye Scientific Software -->
<!-- Creation Date Fri Dec  5 19:20:05 2025 -->
<rect width="2500.00" height="2500.00" fill="white" />
<rect x="10" y="10" width="2480" height="2480" fill="white" />
<line x1="1485.68" y1="565.93" x2="1586.22" y2="493.52" stroke="black" stroke-width="10" stroke-linejoin="round" stroke-linecap="round" />
<line x1="1485.68" y1="565.93" x2="1449.29" y2="592.14" stroke="red" stroke-width="10" stroke-linejoin="round" stroke-linecap="round" />
<line x1="1397.59" y1="761.61" x2="1393.08" y2="717.00" stroke="red" stroke-width="10" stroke-linejoin="round" stroke-linecap="round" />
<line x1="1397.59" y1="761.61" x2="1410.03" y2="884.89" stroke="black" stroke-width="10" stroke-linejoin="round" stroke-linecap="round" />
<line x1="1512.20" y1="959.76" x2="1399.22" y2="908.90" stroke="black" stroke-width="10" stroke-linejoin="round" stroke-linecap="round" />
<line x1="1512.20" y1="959.76" x2="1553.09" y2="978.17" stroke="red" stroke-width="10" stroke-linejoin="round" stroke-linecap="round" />
<line x1="1533.82" y1="911.73" x2="1420.84" y2="860.87" stroke="black" stroke-width="10" stroke-linejoin="round" stroke-linecap="round" />
<line x1="1533.82" y1="911.73" x2="1574.71" y2="930.14" stroke="red" stroke-width="10" stroke-linejoin="round" stroke-linecap="round" />
<polygon points="1208.95,1029.71 1430.92,913.89 1389.13,855.88 " fill="black" stroke="black" stroke-width="7" stroke-linejoin="round" stroke-linecap="round" />
<line x1="1208.95" y1="1029.71" x2="899.35" y2="850.48" stroke="black" stroke-width="10" stroke-linejoin="round" stroke-linecap="round" />
<line x1="1208.95" y1="1029.71" x2="1295.88" y2="1453.40" stroke="black" stroke-width="10" stroke-linejoin="round" stroke-linecap="round" />
<line x1="853.19" y1="677.55" x2="899.35" y2="850.48" stroke="black" stroke-width="10" stroke-linejoin="round" stroke-linecap="round" />
<line x1="853.19" y1="677.55" x2="824.63" y2="570.55" stroke="blue" stroke-width="10" stroke-linejoin="round" stroke-linecap="round" />
<line x1="899.35" y1="850.48" x2="479.31" y2="1033.33" stroke="black" stroke-width="10" stroke-linejoin="round" stroke-linecap="round" />
<line x1="915.98" y1="842.25" x2="911.64" y2="836.57" stroke="black" stroke-width="7" stroke-linejoin="round" stroke-linecap="round" />
<line x1="932.61" y1="834.02" x2="923.92" y2="822.66" stroke="black" stroke-width="7" stroke-linejoin="round" stroke-linecap="round" />
<line x1="949.24" y1="825.79" x2="936.20" y2="808.76" stroke="black" stroke-width="7" stroke-linejoin="round" stroke-linecap="round" />
<line x1="965.87" y1="817.56" x2="948.48" y2="794.85" stroke="black" stroke-width="7" stroke-linejoin="round" stroke-linecap="round" />
<line x1="982.50" y1="809.33" x2="960.76" y2="780.94" stroke="black" stroke-width="7" stroke-linejoin="round" stroke-linecap="round" />
<line x1="999.13" y1="801.10" x2="973.05" y2="767.04" stroke="#8c8c8c" stroke-width="7" stroke-linejoin="round" stroke-linecap="round" />
<line x1="1015.76" y1="792.87" x2="985.33" y2="753.13" stroke="#8c8c8c" stroke-width="7" stroke-linejoin="round" stroke-linecap="round" />
<line x1="1032.38" y1="784.64" x2="997.61" y2="739.23" stroke="#8c8c8c" stroke-width="7" stroke-linejoin="round" stroke-linecap="round" />
<line x1="1049.01" y1="776.41" x2="1009.89" y2="725.32" stroke="#8c8c8c" stroke-width="7" stroke-linejoin="round" stroke-linecap="round" />
<line x1="1065.64" y1="768.18" x2="1022.17" y2="711.41" stroke="#8c8c8c" stroke-width="7" stroke-linejoin="round" stroke-linecap="round" />
<line x1="794.97" y1="381.31" x2="800.39" y2="436.71" stroke="blue" stroke-width="10" stroke-linejoin="round" stroke-linecap="round" />
<line x1="794.97" y1="381.31" x2="782.92" y2="258.00" stroke="black" stroke-width="10" stroke-linejoin="round" stroke-linecap="round" />
<line x1="787.10" y1="806.08" x2="802.52" y2="572.71" stroke="blue" stroke-width="10" stroke-linejoin="round" stroke-linecap="round" />
<line x1="787.10" y1="806.08" x2="767.18" y2="1107.54" stroke="black" stroke-width="10" stroke-linejoin="round" stroke-linecap="round" />
<line x1="479.31" y1="1033.33" x2="386.96" y2="1263.28" stroke="black" stroke-width="10" stroke-linejoin="round" stroke-linecap="round" />
<line x1="386.96" y1="1263.28" x2="767.18" y2="1107.54" stroke="black" stroke-width="10" stroke-linejoin="round" stroke-linecap="round" />
<line x1="767.18" y1="1107.54" x2="1093.08" y2="1208.97" stroke="black" stroke-width="10" stroke-linejoin="round" stroke-linecap="round" />
<polygon points="767.18,1107.54 739.38,1290.99 810.82,1287.87 " fill="#8c8c8c" stroke="#8c8c8c" stroke-width="7" stroke-linejoin="round" stroke-linecap="round" />
<polygon points="767.18,1107.54 753.28,1199.26 789.00,1197.71 " fill="black" stroke="black" stroke-width="7" stroke-linejoin="round" stroke-linecap="round" />
<line x1="1093.08" y1="1208.97" x2="1295.88" y2="1453.40" stroke="black" stroke-width="10" stroke-linejoin="round" stroke-linecap="round" />
<polygon points="1295.88,1453.40 1337.75,1623.25 1402.21,1592.31 " fill="red" stroke="red" stroke-width="7" stroke-linejoin="round" stroke-linecap="round" />
<polygon points="1295.88,1453.40 1316.81,1538.32 1349.04,1522.85 " fill="black" stroke="black" stroke-width="7" stroke-linejoin="round" stroke-linecap="round" />
<line x1="1526.64" y1="1686.22" x2="1481.93" y2="1682.81" stroke="red" stroke-width="10" stroke-linejoin="round" stroke-linecap="round" />
<line x1="1526.64" y1="1686.22" x2="1650.18" y2="1695.64" stroke="black" stroke-width="10" stroke-linejoin="round" stroke-linecap="round" />
<line x1="1741.85" y1="1608.23" x2="1671.92" y2="1710.51" stroke="black" stroke-width="10" stroke-linejoin="round" stroke-linecap="round" />
<line x1="1741.85" y1="1608.23" x2="1767.16" y2="1571.21" stroke="red" stroke-width="10" stroke-linejoin="round" stroke-linecap="round" />
<line x1="1698.38" y1="1578.50" x2="1628.45" y2="1680.78" stroke="black" stroke-width="10" stroke-linejoin="round" stroke-linecap="round" />
<line x1="1698.38" y1="1578.50" x2="1723.69" y2="1541.49" stroke="red" stroke-width="10" stroke-linejoin="round" stroke-linecap="round" />
<line x1="1650.18" y1="1695.64" x2="1757.40" y2="1919.05" stroke="black" stroke-width="10" stroke-linejoin="round" stroke-linecap="round" />
<line x1="1757.40" y1="1919.05" x2="2005.80" y2="1937.27" stroke="black" stroke-width="10" stroke-linejoin="round" stroke-linecap="round" />
<line x1="1793.29" y1="1974.49" x2="1962.20" y2="1986.88" stroke="black" stroke-width="10" stroke-linejoin="round" stroke-linecap="round" />
<line x1="1757.40" y1="1919.05" x2="1616.25" y2="2124.21" stroke="black" stroke-width="10" stroke-linejoin="round" stroke-linecap="round" />
<line x1="2005.80" y1="1937.27" x2="2113.04" y2="2160.66" stroke="black" stroke-width="10" stroke-linejoin="round" stroke-linecap="round" />
<line x1="2113.04" y1="2160.66" x2="1974.34" y2="2366.00" stroke="black" stroke-width="10" stroke-linejoin="round" stroke-linecap="round" />
<line x1="2047.21" y1="2164.03" x2="1952.89" y2="2303.67" stroke="black" stroke-width="10" stroke-linejoin="round" stroke-linecap="round" />
<line x1="1974.34" y1="2366.00" x2="1725.95" y2="2347.78" stroke="black" stroke-width="10" stroke-linejoin="round" stroke-linecap="round" />
<line x1="1725.95" y1="2347.78" x2="1616.25" y2="2124.21" stroke="black" stroke-width="10" stroke-linejoin="round" stroke-linecap="round" />
<line x1="1755.68" y1="2288.81" x2="1681.09" y2="2136.78" stroke="black" stroke-width="10" stroke-linejoin="round" stroke-linecap="round" />
<text x="1385.14" y="680.58" fill="red" font-family="Arial" font-size="128" font-style="normal" font-weight="normal" text-anchor="middle">  O </text>
<text x="1635.99" y="1028.85" fill="red" font-family="Arial" font-size="128" font-style="normal" font-weight="normal" text-anchor="middle">  O </text>
<text x="1118.30" y="1115.46" fill="#4b4b4b" font-family="Arial" font-size="62" font-style="normal" font-weight="normal" text-anchor="middle">  (R) </text>
<text x="892.98" y="982.47" fill="#4b4b4b" font-family="Arial" font-size="62" font-style="normal" font-weight="normal" text-anchor="middle">  (R) </text>
<text x="807.02" y="546.86" fill="blue" font-family="Arial" font-size="128" font-style="normal" font-weight="normal" text-anchor="middle">  N </text>
<text x="676.52" y="1062.73" fill="#4b4b4b" font-family="Arial" font-size="62" font-style="normal" font-weight="normal" text-anchor="middle">  (S) </text>
<text x="1201.83" y="1534.15" fill="#4b4b4b" font-family="Arial" font-size="62" font-style="normal" font-weight="normal" text-anchor="middle">  (S) </text>
<text x="1403.10" y="1719.04" fill="red" font-family="Arial" font-size="128" font-style="normal" font-weight="normal" text-anchor="middle">  O </text>
<text x="1790.05" y="1533.33" fill="red" font-family="Arial" font-size="128" font-style="normal" font-weight="normal" text-anchor="middle">  O </text>
<text x="1096.10" y="742.07" fill="#8c8c8c" font-family="Arial" font-size="128" font-style="normal" font-weight="normal" text-anchor="middle">  H </text>
<text x="777.96" y="1397.35" fill="#8c8c8c" font-family="Arial" font-size="128" font-style="normal" font-weight="normal" text-anchor="middle">  H </text>
</svg>
