<?xml version="1.0" encoding="UTF-8"?>
<!DOCTYPE svg PUBLIC "-//W3C//DTD SVG 1.1//EN"
  "http://www.w3.org/Graphics/SVG/1.1/DTD/svg11.dtd">
<svg xmlns="http://www.w3.org/2000/svg" xmlns:xlink="http://www.w3.org/1999/xlink"   viewBox="0.00 0.00 2500.00 2500.00">
<!-- Created by OpenEye Scientific Software -->
<!-- Creation Date Fri Dec  5 19:21:40 2025 -->
<rect width="2500.00" height="2500.00" fill="white" />
<rect x="10" y="10" width="2480" height="2480" fill="white" />
<line x1="187.24" y1="1164.69" x2="187.24" y2="729.76" stroke="black" stroke-width="10" stroke-linejoin="round" stroke-linecap="round" />
<line x1="261.48" y1="1095.10" x2="261.48" y2="799.35" stroke="black" stroke-width="10" stroke-linejoin="round" stroke-linecap="round" />
<line x1="187.24" y1="1164.69" x2="562.58" y2="1380.01" stroke="black" stroke-width="10" stroke-linejoin="round" stroke-linecap="round" />
<line x1="187.24" y1="729.76" x2="562.58" y2="510.16" stroke="black" stroke-width="10" stroke-linejoin="round" stroke-linecap="round" />
<line x1="562.58" y1="1380.01" x2="937.92" y2="1164.69" stroke="black" stroke-width="10" stroke-linejoin="round" stroke-linecap="round" />
<line x1="585.70" y1="1281.16" x2="840.93" y2="1134.75" stroke="black" stroke-width="10" stroke-linejoin="round" stroke-linecap="round" />
<line x1="562.58" y1="510.16" x2="937.92" y2="729.76" stroke="black" stroke-width="10" stroke-linejoin="round" stroke-linecap="round" />
<line x1="585.15" y1="609.37" x2="840.38" y2="758.70" stroke="black" stroke-width="10" stroke-linejoin="round" stroke-linecap="round" />
<line x1="937.92" y1="1164.69" x2="937.92" y2="729.76" stroke="black" stroke-width="10" stroke-linejoin="round" stroke-linecap="round" />
<line x1="937.92" y1="1164.69" x2="1312.37" y2="1381.56" stroke="black" stroke-width="10" stroke-linejoin="round" stroke-linecap="round" />
<line x1="1125.60" y1="622.12" x2="937.92" y2="729.76" stroke="black" stroke-width="10" stroke-linejoin="round" stroke-linecap="round" />
<line x1="1125.60" y1="622.12" x2="1203.93" y2="577.20" stroke="#82d700" stroke-width="10" stroke-linejoin="round" stroke-linecap="round" />
<line x1="1740.87" y1="1456.03" x2="1888.74" y2="1862.69" stroke="black" stroke-width="10" stroke-linejoin="round" stroke-linecap="round" />
<line x1="1740.87" y1="1456.03" x2="1312.37" y2="1381.56" stroke="black" stroke-width="10" stroke-linejoin="round" stroke-linecap="round" />
<line x1="2012.39" y1="1189.55" x2="1769.33" y2="1479.86" stroke="black" stroke-width="10" stroke-linejoin="round" stroke-linecap="round" />
<line x1="2012.39" y1="1189.55" x2="2184.61" y2="983.84" stroke="red" stroke-width="10" stroke-linejoin="round" stroke-linecap="round" />
<line x1="1955.47" y1="1141.89" x2="1712.41" y2="1432.20" stroke="black" stroke-width="10" stroke-linejoin="round" stroke-linecap="round" />
<line x1="1955.47" y1="1141.89" x2="2127.69" y2="936.19" stroke="red" stroke-width="10" stroke-linejoin="round" stroke-linecap="round" />
<line x1="1888.74" y1="1862.69" x2="1612.34" y2="2195.62" stroke="black" stroke-width="10" stroke-linejoin="round" stroke-linecap="round" />
<line x1="1612.34" y1="2195.62" x2="1183.84" y2="2121.16" stroke="black" stroke-width="10" stroke-linejoin="round" stroke-linecap="round" />
<line x1="1183.84" y1="2121.16" x2="1031.74" y2="1713.76" stroke="black" stroke-width="10" stroke-linejoin="round" stroke-linecap="round" />
<line x1="1031.74" y1="1713.76" x2="1312.37" y2="1381.56" stroke="black" stroke-width="10" stroke-linejoin="round" stroke-linecap="round" />
<line x1="1328.88" y1="1351.33" x2="1319.12" y2="1347.78" stroke="black" stroke-width="7" stroke-linejoin="round" stroke-linecap="round" />
<line x1="1345.39" y1="1321.09" x2="1325.87" y2="1314.00" stroke="black" stroke-width="7" stroke-linejoin="round" stroke-linecap="round" />
<line x1="1361.90" y1="1290.85" x2="1332.62" y2="1280.21" stroke="black" stroke-width="7" stroke-linejoin="round" stroke-linecap="round" />
<line x1="1378.41" y1="1260.61" x2="1339.37" y2="1246.43" stroke="black" stroke-width="7" stroke-linejoin="round" stroke-linecap="round" />
<line x1="1394.92" y1="1230.38" x2="1346.12" y2="1212.64" stroke="black" stroke-width="7" stroke-linejoin="round" stroke-linecap="round" />
<line x1="1411.44" y1="1200.14" x2="1352.87" y2="1178.86" stroke="blue" stroke-width="7" stroke-linejoin="round" stroke-linecap="round" />
<line x1="1427.95" y1="1169.90" x2="1359.62" y2="1145.07" stroke="blue" stroke-width="7" stroke-linejoin="round" stroke-linecap="round" />
<line x1="1444.46" y1="1139.66" x2="1366.37" y2="1111.29" stroke="blue" stroke-width="7" stroke-linejoin="round" stroke-linecap="round" />
<line x1="1460.97" y1="1109.42" x2="1373.12" y2="1077.50" stroke="blue" stroke-width="7" stroke-linejoin="round" stroke-linecap="round" />
<line x1="1477.48" y1="1079.19" x2="1379.88" y2="1043.72" stroke="blue" stroke-width="7" stroke-linejoin="round" stroke-linecap="round" />
<line x1="1673.19" y1="937.18" x2="1886.25" y2="899.49" stroke="black" stroke-width="10" stroke-linejoin="round" stroke-linecap="round" />
<line x1="1673.19" y1="937.18" x2="1553.33" y2="958.38" stroke="blue" stroke-width="10" stroke-linejoin="round" stroke-linecap="round" />
<text x="1367.80" y="1563.77" fill="#4b4b4b" font-family="Arial" font-size="90" font-style="normal" font-weight="normal" text-anchor="middle">  (R) </text>
<text x="1460.14" y="1036.24" fill="blue" font-family="Arial" font-size="186" font-style="normal" font-weight="normal" text-anchor="middle">  N </text>
<text x="1460.14" y="887.44" fill="blue" font-family="Arial" font-size="186" font-style="normal" font-weight="normal" text-anchor="middle">  H </text>
<text x="2226.99" y="936.79" fill="red" font-family="Arial" font-size="186" font-style="normal" font-weight="normal" text-anchor="middle">  O </text>
<text x="1313.29" y="575.87" fill="#82d700" font-family="Arial" font-size="186" font-style="normal" font-weight="normal" text-anchor="middle">  Cl </text>
</svg>
