<?xml version="1.0" encoding="UTF-8"?>
<!DOCTYPE svg PUBLIC "-//W3C//DTD SVG 1.1//EN"
  "http://www.w3.org/Graphics/SVG/1.1/DTD/svg11.dtd">
<svg xmlns="http://www.w3.org/2000/svg" xmlns:xlink="http://www.w3.org/1999/xlink"   viewBox="0.00 0.00 2500.00 2500.00">
<!-- Created by OpenEye Scientific Software -->
<!-- Creation Date Fri Dec  5 19:19:59 2025 -->
<rect width="2500.00" height="2500.00" fill="white" />
<rect x="10" y="10" width="2480" height="2480" fill="white" />
<line x1="2268.12" y1="1179.20" x2="2221.16" y2="1114.58" stroke="red" stroke-width="10" stroke-linejoin="round" stroke-linecap="round" />
<line x1="2268.12" y1="1179.20" x2="2366.00" y2="1313.88" stroke="black" stroke-width="10" stroke-linejoin="round" stroke-linecap="round" />
<line x1="2011.88" y1="1095.94" x2="2087.87" y2="1071.27" stroke="red" stroke-width="10" stroke-linejoin="round" stroke-linecap="round" />
<line x1="2011.88" y1="1095.94" x2="1853.52" y2="1147.36" stroke="black" stroke-width="10" stroke-linejoin="round" stroke-linecap="round" />
<line x1="2268.12" y1="1448.60" x2="2366.00" y2="1313.88" stroke="black" stroke-width="10" stroke-linejoin="round" stroke-linecap="round" />
<line x1="2268.12" y1="1448.60" x2="2221.15" y2="1513.25" stroke="red" stroke-width="10" stroke-linejoin="round" stroke-linecap="round" />
<line x1="2011.88" y1="1531.85" x2="2087.87" y2="1556.55" stroke="red" stroke-width="10" stroke-linejoin="round" stroke-linecap="round" />
<line x1="2011.88" y1="1531.85" x2="1853.52" y2="1480.38" stroke="black" stroke-width="10" stroke-linejoin="round" stroke-linecap="round" />
<line x1="276.94" y1="1067.61" x2="134.00" y2="1150.69" stroke="black" stroke-width="10" stroke-linejoin="round" stroke-linecap="round" />
<line x1="276.94" y1="1067.61" x2="355.38" y2="1022.02" stroke="blue" stroke-width="10" stroke-linejoin="round" stroke-linecap="round" />
<line x1="563.31" y1="1066.77" x2="484.61" y2="1021.64" stroke="blue" stroke-width="10" stroke-linejoin="round" stroke-linecap="round" />
<line x1="563.31" y1="1066.77" x2="706.74" y2="1149.03" stroke="black" stroke-width="10" stroke-linejoin="round" stroke-linecap="round" />
<line x1="702.87" y1="1182.10" x2="710.80" y2="1182.08" stroke="black" stroke-width="7" stroke-linejoin="round" stroke-linecap="round" />
<line x1="699.00" y1="1215.18" x2="714.87" y2="1215.14" stroke="black" stroke-width="7" stroke-linejoin="round" stroke-linecap="round" />
<line x1="695.12" y1="1248.26" x2="718.93" y2="1248.19" stroke="black" stroke-width="7" stroke-linejoin="round" stroke-linecap="round" />
<line x1="691.25" y1="1281.34" x2="723.00" y2="1281.25" stroke="black" stroke-width="7" stroke-linejoin="round" stroke-linecap="round" />
<line x1="687.38" y1="1314.42" x2="727.06" y2="1314.30" stroke="black" stroke-width="7" stroke-linejoin="round" stroke-linecap="round" />
<line x1="683.51" y1="1347.50" x2="731.12" y2="1347.36" stroke="black" stroke-width="7" stroke-linejoin="round" stroke-linecap="round" />
<line x1="679.64" y1="1380.58" x2="735.19" y2="1380.41" stroke="black" stroke-width="7" stroke-linejoin="round" stroke-linecap="round" />
<line x1="675.76" y1="1413.65" x2="739.25" y2="1413.47" stroke="black" stroke-width="7" stroke-linejoin="round" stroke-linecap="round" />
<line x1="671.89" y1="1446.73" x2="743.32" y2="1446.53" stroke="black" stroke-width="7" stroke-linejoin="round" stroke-linecap="round" />
<line x1="668.02" y1="1479.81" x2="747.38" y2="1479.58" stroke="black" stroke-width="7" stroke-linejoin="round" stroke-linecap="round" />
<line x1="706.74" y1="1149.03" x2="992.63" y2="982.86" stroke="black" stroke-width="10" stroke-linejoin="round" stroke-linecap="round" />
<line x1="992.63" y1="982.86" x2="1279.48" y2="1147.36" stroke="black" stroke-width="10" stroke-linejoin="round" stroke-linecap="round" />
<line x1="1566.50" y1="979.41" x2="1279.48" y2="1147.36" stroke="black" stroke-width="10" stroke-linejoin="round" stroke-linecap="round" />
<line x1="1549.82" y1="1056.26" x2="1354.65" y2="1170.47" stroke="black" stroke-width="10" stroke-linejoin="round" stroke-linecap="round" />
<line x1="1279.48" y1="1147.36" x2="1279.48" y2="1479.95" stroke="black" stroke-width="10" stroke-linejoin="round" stroke-linecap="round" />
<line x1="1566.50" y1="979.41" x2="1853.52" y2="1147.36" stroke="black" stroke-width="10" stroke-linejoin="round" stroke-linecap="round" />
<line x1="1279.48" y1="1479.95" x2="1566.50" y2="1644.59" stroke="black" stroke-width="10" stroke-linejoin="round" stroke-linecap="round" />
<line x1="1354.21" y1="1456.06" x2="1549.39" y2="1568.02" stroke="black" stroke-width="10" stroke-linejoin="round" stroke-linecap="round" />
<line x1="1853.52" y1="1147.36" x2="1853.52" y2="1480.38" stroke="black" stroke-width="10" stroke-linejoin="round" stroke-linecap="round" />
<line x1="1795.62" y1="1200.64" x2="1795.62" y2="1427.10" stroke="black" stroke-width="10" stroke-linejoin="round" stroke-linecap="round" />
<line x1="1853.52" y1="1480.38" x2="1566.50" y2="1644.59" stroke="black" stroke-width="10" stroke-linejoin="round" stroke-linecap="round" />
<text x="2170.24" y="1091.38" fill="red" font-family="Arial" font-size="142" font-style="normal" font-weight="normal" text-anchor="middle">  O </text>
<text x="2170.24" y="1630.18" fill="red" font-family="Arial" font-size="142" font-style="normal" font-weight="normal" text-anchor="middle">  O </text>
<text x="419.89" y="1031.38" fill="blue" font-family="Arial" font-size="142" font-style="normal" font-weight="normal" text-anchor="middle">  N </text>
<text x="419.89" y="917.78" fill="blue" font-family="Arial" font-size="142" font-style="normal" font-weight="normal" text-anchor="middle">  H </text>
<text x="706.38" y="1047.79" fill="#4b4b4b" font-family="Arial" font-size="69" font-style="normal" font-weight="normal" text-anchor="middle">  (S) </text>
</svg>
