<?xml version="1.0" encoding="UTF-8"?>
<!DOCTYPE svg PUBLIC "-//W3C//DTD SVG 1.1//EN"
  "http://www.w3.org/Graphics/SVG/1.1/DTD/svg11.dtd">
<svg xmlns="http://www.w3.org/2000/svg" xmlns:xlink="http://www.w3.org/1999/xlink"   viewBox="0.00 0.00 2500.00 2500.00">
<!-- Created by OpenEye Scientific Software -->
<!-- Creation Date Fri Dec  5 19:19:59 2025 -->
<rect width="2500.00" height="2500.00" fill="white" />
<rect x="10" y="10" width="2480" height="2480" fill="white" />
<line x1="2063.78" y1="492.34" x2="2063.40" y2="624.77" stroke="blue" stroke-width="10" stroke-linejoin="round" stroke-linecap="round" />
<line x1="2063.78" y1="492.34" x2="2064.46" y2="258.00" stroke="black" stroke-width="10" stroke-linejoin="round" stroke-linecap="round" />
<line x1="1859.82" y1="843.27" x2="1974.70" y2="777.38" stroke="blue" stroke-width="10" stroke-linejoin="round" stroke-linecap="round" />
<line x1="1859.82" y1="843.27" x2="1656.54" y2="959.85" stroke="black" stroke-width="10" stroke-linejoin="round" stroke-linecap="round" />
<line x1="1618.84" y1="931.44" x2="1613.19" y2="941.16" stroke="black" stroke-width="7" stroke-linejoin="round" stroke-linecap="round" />
<line x1="1581.15" y1="903.02" x2="1569.84" y2="922.48" stroke="black" stroke-width="7" stroke-linejoin="round" stroke-linecap="round" />
<line x1="1543.45" y1="874.61" x2="1526.49" y2="903.79" stroke="black" stroke-width="7" stroke-linejoin="round" stroke-linecap="round" />
<line x1="1505.76" y1="846.20" x2="1483.15" y2="885.10" stroke="black" stroke-width="7" stroke-linejoin="round" stroke-linecap="round" />
<line x1="1468.06" y1="817.78" x2="1439.80" y2="866.41" stroke="black" stroke-width="7" stroke-linejoin="round" stroke-linecap="round" />
<line x1="1430.37" y1="789.37" x2="1396.45" y2="847.72" stroke="black" stroke-width="7" stroke-linejoin="round" stroke-linecap="round" />
<line x1="1392.67" y1="760.95" x2="1353.10" y2="829.03" stroke="black" stroke-width="7" stroke-linejoin="round" stroke-linecap="round" />
<line x1="1354.98" y1="732.54" x2="1309.76" y2="810.34" stroke="black" stroke-width="7" stroke-linejoin="round" stroke-linecap="round" />
<line x1="1317.28" y1="704.13" x2="1266.41" y2="791.65" stroke="black" stroke-width="7" stroke-linejoin="round" stroke-linecap="round" />
<line x1="1279.58" y1="675.71" x2="1223.06" y2="772.96" stroke="black" stroke-width="7" stroke-linejoin="round" stroke-linecap="round" />
<line x1="1656.54" y1="959.85" x2="1655.18" y2="1428.54" stroke="black" stroke-width="10" stroke-linejoin="round" stroke-linecap="round" />
<line x1="1655.18" y1="1428.54" x2="1248.61" y2="1661.71" stroke="black" stroke-width="10" stroke-linejoin="round" stroke-linecap="round" />
<line x1="842.08" y1="1423.85" x2="1248.61" y2="1661.71" stroke="black" stroke-width="10" stroke-linejoin="round" stroke-linecap="round" />
<line x1="866.73" y1="1530.95" x2="1143.17" y2="1692.69" stroke="black" stroke-width="10" stroke-linejoin="round" stroke-linecap="round" />
<line x1="1248.61" y1="1661.71" x2="1248.61" y2="2132.78" stroke="black" stroke-width="10" stroke-linejoin="round" stroke-linecap="round" />
<line x1="1248.61" y1="2132.78" x2="842.08" y2="2366.00" stroke="black" stroke-width="10" stroke-linejoin="round" stroke-linecap="round" />
<line x1="1143.77" y1="2100.71" x2="867.32" y2="2259.30" stroke="black" stroke-width="10" stroke-linejoin="round" stroke-linecap="round" />
<line x1="842.08" y1="1423.85" x2="435.54" y2="1661.71" stroke="black" stroke-width="10" stroke-linejoin="round" stroke-linecap="round" />
<line x1="435.54" y1="2132.78" x2="842.08" y2="2366.00" stroke="black" stroke-width="10" stroke-linejoin="round" stroke-linecap="round" />
<line x1="435.54" y1="1661.71" x2="435.54" y2="2132.78" stroke="black" stroke-width="10" stroke-linejoin="round" stroke-linecap="round" />
<line x1="515.53" y1="1737.08" x2="515.53" y2="2057.41" stroke="black" stroke-width="10" stroke-linejoin="round" stroke-linecap="round" />
<text x="2063.11" y="793.34" fill="blue" font-family="Arial" font-size="202" font-style="normal" font-weight="normal" text-anchor="middle">  N </text>
<text x="2204.51" y="793.34" fill="blue" font-family="Arial" font-size="202" font-style="normal" font-weight="normal" text-anchor="middle">  H </text>
<text x="1808.49" y="1080.51" fill="#4b4b4b" font-family="Arial" font-size="98" font-style="normal" font-weight="normal" text-anchor="middle">  (S) </text>
</svg>
